Run_40002
nRows=4
nColumns=164

# SIMM Motion File Header:
name Run_40002
datacolumns 164
datarows 4
otherdata 1
range 2.74000000 2.77000000
endheader
time	pelvis_tilt	pelvis_list	pelvis_rotation	pelvis_tx	pelvis_ty	pelvis_tz	hip_flexion_r	hip_adduction_r	hip_rotation_r	knee_angle_r	ankle_angle_r	hip_flexion_l	hip_adduction_l	hip_rotation_l	knee_angle_l	ankle_angle_l	lumbar_extension	lumbar_bending	lumbar_rotation	arm_flex_r	arm_add_r	arm_rot_r	elbow_flex_r	pro_sup_r	arm_flex_l	arm_add_l	arm_rot_l	elbow_flex_l	pro_sup_l	subtalar_angle_r	mtp_angle_r	subtalar_angle_l	mtp_angle_l	wrist_flex_r	wrist_dev_r	wrist_flex_l	wrist_dev_l	LASI_tx	LASI_ty	LASI_tz	RASI_tx	RASI_ty	RASI_tz	LPSI_tx	LPSI_ty	LPSI_tz	RPSI_tx	RPSI_ty	RPSI_tz	RTH1_tx	RTH1_ty	RTH1_tz	RTH3_tx	RTH3_ty	RTH3_tz	LTH1_tx	LTH1_ty	LTH1_tz	LTH2_tx	LTH2_ty	LTH2_tz	LTH3_tx	LTH3_ty	LTH3_tz	RTB1_tx	RTB1_ty	RTB1_tz	RTB2_tx	RTB2_ty	RTB2_tz	LTB1_tx	LTB1_ty	LTB1_tz	LTB2_tx	LTB2_ty	LTB2_tz	RCAL_tx	RCAL_ty	RCAL_tz	RTOE_tx	RTOE_ty	RTOE_tz	LCAL_tx	LCAL_ty	LCAL_tz	LTOE_tx	LTOE_ty	LTOE_tz	LACR_tx	LACR_ty	LACR_tz	RACR_tx	RACR_ty	RACR_tz	CLAV_tx	CLAV_ty	CLAV_tz	C7_tx	C7_ty	C7_tz	RUA1_tx	RUA1_ty	RUA1_tz	RUA2_tx	RUA2_ty	RUA2_tz	RUA3_tx	RUA3_ty	RUA3_tz	RLEL_tx	RLEL_ty	RLEL_tz	RMEL_tx	RMEL_ty	RMEL_tz	LUA1_tx	LUA1_ty	LUA1_tz	LUA2_tx	LUA2_ty	LUA2_tz	LUA3_tx	LUA3_ty	LUA3_tz	LLEL_tx	LLEL_ty	LLEL_tz	LMEL_tx	LMEL_ty	LMEL_tz	RFAsuperior_tx	RFAsuperior_ty	RFAsuperior_tz	RFAradius_tx	RFAradius_ty	RFAradius_tz	RFAulna_tx	RFAulna_ty	RFAulna_tz	LFAsuperior_tx	LFAsuperior_ty	LFAsuperior_tz	LFAradius_tx	LFAradius_ty	LFAradius_tz	LFAulna_tx	LFAulna_ty	LFAulna_tz	RTH2_tx	RTH2_ty	RTH2_tz	RTB3_tx	RTB3_ty	RTB3_tz	RMT5_tx	RMT5_ty	RMT5_tz	LMT5_tx	LMT5_ty	LMT5_tz	LTB3_tx	LTB3_ty	LTB3_tz
      2.74000000	     -8.81746432	     -2.96914852	      6.91465537	      0.78224868	      1.04288380	     -0.30567514	     40.09027841	      1.29481953	     -7.88471183	    -35.03357787	     -8.72074364	    -12.19449778	     -4.57111927	     -9.67353360	    -36.48674341	    -22.32018521	     -0.38345065	      4.30868064	    -20.60844895	    -36.82081952	    -27.04720271	     -0.33928731	     89.95927435	     79.83439716	     -4.43976881	    -40.82047223	     17.62873893	    127.63821095	     82.75105778	      0.00000000	      0.00000000	      0.00000000	      0.00000000	      0.00000000	      0.00000000	      0.00000000	      0.00000000	      0.77254182	      1.03008062	     -0.43057039	      0.79261550	      1.04997466	     -0.18516612	      0.61057931	      1.13226574	     -0.33811690	      0.61221507	      1.12887048	     -0.25159704	      0.76714069	      0.92741896	     -0.11618716	      0.86562975	      0.71165703	     -0.15225234	      0.66021793	      0.93181679	     -0.48502278	      0.67508869	      0.79698560	     -0.47025552	      0.54186613	      0.70563137	     -0.45417723	      0.97172113	      0.48598318	     -0.20827545	      0.92025436	      0.38554694	     -0.16054560	      0.44973792	      0.48694751	     -0.39301691	      0.34199213	      0.49290984	     -0.43697918	      0.81625265	      0.15542361	     -0.24915162	      1.04818055	      0.13986410	     -0.24481212	      0.10972894	      0.40399270	     -0.30637193	      0.17402678	      0.18381423	     -0.33997510	      0.79792740	      1.56994879	     -0.44461892	      0.73525206	      1.56676776	     -0.11961823	      0.83324478	      1.52418607	     -0.24740874	      0.70462891	      1.59700083	     -0.30630615	      0.63381148	      1.50450497	     -0.04818506	      0.55295665	      1.45761429	     -0.09427895	      0.55280110	      1.42571659	     -0.01854074	      0.49403172	      1.34649060	      0.00882277	      0.47212191	      1.33289470	     -0.07137415	      0.79273415	      1.48697456	     -0.55719784	      0.73206191	      1.40630374	     -0.58316187	      0.79645325	      1.38777230	     -0.62704859	      0.81743302	      1.31086919	     -0.67264969	      0.76129875	      1.26046437	     -0.64752665	      0.52769119	      1.27331421	      0.01900218	      0.68806165	      1.14845948	     -0.02617835	      0.63123056	      1.11048105	     -0.00856264	      0.89659921	      1.29104190	     -0.57879860	      0.92910659	      1.32750686	     -0.43004743	      0.94999864	      1.26292977	     -0.44581353	      0.88374328	      0.83402137	     -0.13315130	      0.94591615	      0.28666919	     -0.22222746	      1.01720397	      0.09986599	     -0.16414933	      0.10990788	      0.20454927	     -0.40162410	      0.27939871	      0.37356403	     -0.36504514
      2.75000000	     -8.73607605	     -2.25775867	      6.84181977	      0.78409310	      1.04242403	     -0.30531747	     37.58006561	      0.97049350	     -7.22060232	    -26.80320782	    -10.35502654	    -11.90426111	     -4.24801116	     -9.22228261	    -41.45475015	    -22.50814369	     -0.35453653	      3.81347267	    -20.00651488	    -37.16236681	    -26.35204720	     -1.95285710	     89.68424362	     79.65073257	     -4.55770212	    -41.24280707	     18.46433361	    126.64116251	     83.21341750	      0.00000000	      0.00000000	      0.00000000	      0.00000000	      0.00000000	      0.00000000	      0.00000000	      0.00000000	      0.77398889	      1.03106697	     -0.43097097	      0.79294877	      1.04887553	     -0.18463473	      0.61226084	      1.13233904	     -0.33783703	      0.61385717	      1.12766253	     -0.25178608	      0.76599958	      0.92382884	     -0.11721599	      0.85659382	      0.70330207	     -0.15083201	      0.66382464	      0.93297375	     -0.48626073	      0.67929082	      0.79773454	     -0.47111710	      0.54632881	      0.70540648	     -0.45627146	      0.97057861	      0.47960621	     -0.20645308	      0.92962935	      0.37495128	     -0.15897505	      0.44798901	      0.49054089	     -0.39517066	      0.34093052	      0.50401019	     -0.43911290	      0.85020366	      0.13703852	     -0.24967337	      1.08237322	      0.14262558	     -0.24371609	      0.10318410	      0.43650611	     -0.30773103	      0.14936556	      0.21130155	     -0.33770571	      0.79764661	      1.57165944	     -0.44253164	      0.73697218	      1.56555819	     -0.11704249	      0.83418668	      1.52382766	     -0.24568043	      0.70583129	      1.59825319	     -0.30313907	      0.63518553	      1.50279377	     -0.04600957	      0.55536286	      1.45488288	     -0.09419788	      0.55413666	      1.42425531	     -0.01810546	      0.49551298	      1.34435148	      0.00925257	      0.47505896	      1.32955713	     -0.07119031	      0.79120739	      1.48896103	     -0.55576134	      0.73049075	      1.40876208	     -0.58192639	      0.79500312	      1.39144690	     -0.62649002	      0.81590898	      1.31459165	     -0.67219951	      0.75924628	      1.26455034	     -0.64808900	      0.52942522	      1.27145301	      0.02066764	      0.69079098	      1.14601854	     -0.02075485	      0.63354460	      1.10806157	     -0.00421613	      0.89502414	      1.29101779	     -0.57908007	      0.92877160	      1.32249976	     -0.42903490	      0.94875934	      1.25827523	     -0.44745583	      0.88026275	      0.82744777	     -0.13165147	      0.96591331	      0.27906093	     -0.22000832	      1.05494980	      0.09524318	     -0.16562388	      0.08645619	      0.23552809	     -0.39889184	      0.26881940	      0.39181281	     -0.36495129
      2.76000000	     -8.48946036	     -1.55877708	      6.68097025	      0.78596371	      1.04094384	     -0.30539969	     35.11470047	      0.54526887	     -6.66413786	    -19.85460282	    -11.95427158	    -11.60671506	     -3.82744593	     -8.69648658	    -46.71717430	    -22.45906341	     -0.46299971	      3.45363222	    -19.25211026	    -37.12934815	    -25.84097786	     -3.34351866	     89.13778304	     78.90415185	     -4.86080002	    -41.45088920	     19.27662324	    125.04288017	     82.58214542	      0.00000000	      0.00000000	      0.00000000	      0.00000000	      0.00000000	      0.00000000	      0.00000000	      0.00000000	      0.77578366	      1.03128037	     -0.43149226	      0.79396948	      1.04619960	     -0.18469902	      0.61397295	      1.13064995	     -0.33790773	      0.61524256	      1.12413180	     -0.25322727	      0.76627209	      0.92027487	     -0.11911741	      0.84644390	      0.69429411	     -0.14889900	      0.66794736	      0.93262489	     -0.48779460	      0.68406047	      0.79699545	     -0.47223012	      0.55198461	      0.70346936	     -0.45824141	      0.96794568	      0.47376320	     -0.20457440	      0.93476027	      0.36672901	     -0.15693158	      0.44827775	      0.49282863	     -0.39637504	      0.34280331	      0.51348850	     -0.44109246	      0.87733196	      0.12469669	     -0.24957631	      1.10829624	      0.14630962	     -0.24078085	      0.10064258	      0.46877479	     -0.30897038	      0.12774704	      0.23997807	     -0.33625978	      0.79697003	      1.57225395	     -0.44003144	      0.73833509	      1.56292877	     -0.11452465	      0.83468474	      1.52253518	     -0.24403077	      0.70679134	      1.59844083	     -0.29986377	      0.63671970	      1.49948339	     -0.04329093	      0.55783897	      1.45035284	     -0.09307529	      0.55593887	      1.42017613	     -0.01673367	      0.49829124	      1.33907481	      0.01055353	      0.47890460	      1.32342291	     -0.06983320	      0.78856312	      1.49014555	     -0.55408889	      0.72774081	      1.41060160	     -0.58028629	      0.79228596	      1.39399801	     -0.62567842	      0.81283837	      1.31696026	     -0.67146925	      0.75532569	      1.26759033	     -0.64846808	      0.53245579	      1.26642333	      0.02307767	      0.69491334	      1.14083580	     -0.01462949	      0.63713258	      1.10278513	      0.00048574	      0.89220353	      1.28817189	     -0.57990116	      0.92911358	      1.31385163	     -0.42911333	      0.94631898	      1.24982104	     -0.45019624	      0.87543996	      0.81951848	     -0.13095351	      0.98100292	      0.27391783	     -0.21660053	      1.08388621	      0.09262987	     -0.16543871	      0.06716162	      0.26841776	     -0.39754222	      0.26126190	      0.40993412	     -0.36462579
      2.77000000	     -8.12333742	     -0.97688447	      6.46686610	      0.78769018	      1.03864361	     -0.30584012	     32.88766913	      0.11255342	     -6.65380411	    -14.54338007	    -13.24428823	    -11.20837676	     -3.42992356	     -8.08803169	    -52.24440291	    -22.09587498	     -0.68300569	      3.32356207	    -18.46696698	    -36.60664849	    -25.58469876	     -4.38091998	     88.22228338	     77.79285062	     -5.45212741	    -41.41862298	     19.87638834	    122.94759933	     81.18583434	      0.00000000	      0.00000000	      0.00000000	      0.00000000	      0.00000000	      0.00000000	      0.00000000	      0.00000000	      0.77799031	      1.03091057	     -0.43228139	      0.79551002	      1.04245100	     -0.18520909	      0.61537477	      1.12754547	     -0.33847219	      0.61641480	      1.11945856	     -0.25502004	      0.76700494	      0.91643055	     -0.12082451	      0.83614853	      0.68527340	     -0.14730836	      0.67222448	      0.93063751	     -0.48930543	      0.68939764	      0.79457753	     -0.47333952	      0.55912603	      0.69960914	     -0.46043976	      0.96461470	      0.46868783	     -0.20283281	      0.93606494	      0.36029587	     -0.15507502	      0.45045319	      0.49385741	     -0.39717514	      0.34718404	      0.52174290	     -0.44289141	      0.89578806	      0.11675738	     -0.24967941	      1.12513908	      0.14859293	     -0.23622139	      0.10221487	      0.50003827	     -0.31021069	      0.11006883	      0.26942388	     -0.33606643	      0.79611391	      1.57152731	     -0.43725349	      0.73936021	      1.55876834	     -0.11202916	      0.83490931	      1.52016539	     -0.24249375	      0.70747605	      1.59720437	     -0.29650388	      0.63834671	      1.49451170	     -0.04008723	      0.56015804	      1.44381165	     -0.09083480	      0.55849080	      1.41347480	     -0.01433103	      0.50237341	      1.33086817	      0.01277493	      0.48345530	      1.31463207	     -0.06724464	      0.78549873	      1.49070046	     -0.55198571	      0.72426316	      1.41188224	     -0.57810081	      0.78854085	      1.39519739	     -0.62445223	      0.80838419	      1.31795372	     -0.67059445	      0.74961111	      1.26958203	     -0.64844863	      0.53673197	      1.25837066	      0.02622492	      0.70036135	      1.13298798	     -0.00803029	      0.64201835	      1.09480444	      0.00557373	      0.88832768	      1.28289066	     -0.58149050	      0.92964702	      1.30194839	     -0.43067781	      0.94260469	      1.23827514	     -0.45417630	      0.86938221	      0.81014706	     -0.13077431	      0.99047600	      0.27031566	     -0.21313794	      1.10231351	      0.09073445	     -0.16329593	      0.05287121	      0.30271412	     -0.39814776	      0.25702439	      0.42754711	     -0.36458218
